M48
;Layer_Color=9474304
;FILE_FORMAT=2:5
INCH
;TYPE=PLATED
T01F00S00C0.02800
T02F00S00C0.03937
%
T01
X0130905Y0116142
X0143701Y0110236
X0130905Y0145669
X0157579Y0133357
X0157480Y0100394
X0184055Y0116142
X0191929Y0145669
Y0157480
X0191929Y0169291
X0177165Y0179134
X0157480
X0161417Y0157480
X0130905Y0157480
X0123031Y0169291
X0137795Y0179134
T02
X0104331Y0122795
Y0132795
Y0142795
Y0152795
X0210630
Y0142795
Y0132795
Y0122795
M30
