G04*
G04 #@! TF.GenerationSoftware,Altium Limited,Altium Designer,24.5.2 (23)*
G04*
G04 Layer_Color=65535*
%FSLAX44Y44*%
%MOMM*%
G71*
G04*
G04 #@! TF.SameCoordinates,F0414C31-E6DA-4059-9EB2-E58CB8C62B50*
G04*
G04*
G04 #@! TF.FilePolarity,Positive*
G04*
G01*
G75*
%ADD10C,0.1524*%
D10*
X499000Y435000D02*
G03*
X494000Y430000I0J-5000D01*
G01*
X324000Y468000D02*
X476000D01*
X499000Y430000D02*
Y440000D01*
X477000Y430000D02*
X499000D01*
X324000Y465000D02*
X476000D01*
X301000Y430000D02*
X323000D01*
X301000D02*
Y440000D01*
X383617Y330221D02*
Y349779D01*
X396342Y330221D02*
X403658D01*
X416383D02*
Y349779D01*
X522300Y299200D02*
X547700D01*
X522300Y400800D02*
X547700D01*
X252300D02*
X277700D01*
X252300Y299200D02*
X277700D01*
X342460Y346270D02*
X345000D01*
X342460Y343730D02*
X347540D01*
X345000D02*
Y346270D01*
X342460D02*
X347540D01*
X345000Y343730D02*
X347540Y346270D01*
X342460D02*
X345000Y343730D01*
X350715Y343365D02*
Y346635D01*
X339285Y343365D02*
Y346635D01*
X452460Y346270D02*
X455000D01*
X452460Y343730D02*
X457540D01*
X455000D02*
Y346270D01*
X452460D02*
X457540D01*
X455000Y343730D02*
X457540Y346270D01*
X452460D02*
X455000Y343730D01*
X460715Y343365D02*
Y346635D01*
X449285Y343365D02*
Y346635D01*
X366209Y264550D02*
Y270748D01*
X323791Y239252D02*
Y245450D01*
Y264550D02*
Y270748D01*
X366209D01*
Y239252D02*
Y245450D01*
X323791Y239252D02*
X366209D01*
X433791D02*
Y245450D01*
X476209Y264550D02*
Y270748D01*
Y239252D02*
Y245450D01*
X433791Y239252D02*
X476209D01*
X433791Y264550D02*
Y270748D01*
X476209D01*
X495982Y366032D02*
X494316Y367698D01*
X490984D01*
X489318Y366032D01*
Y359368D01*
X490984Y357702D01*
X494316D01*
X495982Y359368D01*
Y362700D01*
X492650D01*
X499315Y357702D02*
Y367698D01*
X505979Y357702D01*
Y367698D01*
X509311D02*
Y357702D01*
X514310D01*
X515976Y359368D01*
Y366032D01*
X514310Y367698D01*
X509311D01*
X495982Y315232D02*
X494316Y316898D01*
X490984D01*
X489318Y315232D01*
Y308568D01*
X490984Y306902D01*
X494316D01*
X495982Y308568D01*
Y311900D01*
X492650D01*
X499315Y306902D02*
Y316898D01*
X505979Y306902D01*
Y316898D01*
X509311D02*
Y306902D01*
X514310D01*
X515976Y308568D01*
Y315232D01*
X514310Y316898D01*
X509311D01*
X450002Y390682D02*
X459998D01*
Y385684D01*
X458332Y384017D01*
X455000D01*
X453334Y385684D01*
Y390682D01*
X459998Y380685D02*
X450002D01*
X453334Y377353D01*
X450002Y374021D01*
X459998D01*
X450002Y370689D02*
X459998D01*
Y365690D01*
X458332Y364024D01*
X455000D01*
X453334Y365690D01*
Y370689D01*
Y367356D02*
X450002Y364024D01*
X348332Y392348D02*
X349998Y394014D01*
Y397347D01*
X348332Y399013D01*
X341668D01*
X340002Y397347D01*
Y394014D01*
X341668Y392348D01*
X345000D01*
Y395681D01*
X340002Y389016D02*
X349998D01*
Y384017D01*
X348332Y382351D01*
X345000D01*
X343334Y384017D01*
Y389016D01*
X340002Y379019D02*
Y375687D01*
Y377353D01*
X349998D01*
X348332Y379019D01*
Y370689D02*
X349998Y369022D01*
Y365690D01*
X348332Y364024D01*
X341668D01*
X340002Y365690D01*
Y369022D01*
X341668Y370689D01*
X348332D01*
X436673Y286521D02*
Y276524D01*
X441671D01*
X443337Y278190D01*
Y279856D01*
X441671Y281522D01*
X436673D01*
X441671D01*
X443337Y283188D01*
Y284855D01*
X441671Y286521D01*
X436673D01*
X451668D02*
X448335D01*
X446669Y284855D01*
Y278190D01*
X448335Y276524D01*
X451668D01*
X453334Y278190D01*
Y284855D01*
X451668Y286521D01*
X461665D02*
X458332D01*
X456666Y284855D01*
Y278190D01*
X458332Y276524D01*
X461665D01*
X463331Y278190D01*
Y284855D01*
X461665Y286521D01*
X466663D02*
X473327D01*
X469995D01*
Y276524D01*
X321674D02*
Y286521D01*
X326673D01*
X328339Y284855D01*
Y281522D01*
X326673Y279856D01*
X321674D01*
X325006D02*
X328339Y276524D01*
X338335Y286521D02*
X331671D01*
Y276524D01*
X338335D01*
X331671Y281522D02*
X335003D01*
X348332Y284855D02*
X346666Y286521D01*
X343334D01*
X341668Y284855D01*
Y283188D01*
X343334Y281522D01*
X346666D01*
X348332Y279856D01*
Y278190D01*
X346666Y276524D01*
X343334D01*
X341668Y278190D01*
X358329Y286521D02*
X351665D01*
Y276524D01*
X358329D01*
X351665Y281522D02*
X354997D01*
X361661Y286521D02*
X368326D01*
X364994D01*
Y276524D01*
X479321Y332302D02*
Y338966D01*
X482653Y342298D01*
X485986Y338966D01*
Y332302D01*
Y337300D01*
X479321D01*
X489318Y342298D02*
Y332302D01*
X494316D01*
X495982Y333968D01*
Y340632D01*
X494316Y342298D01*
X489318D01*
X505979Y340632D02*
X504313Y342298D01*
X500981D01*
X499315Y340632D01*
Y333968D01*
X500981Y332302D01*
X504313D01*
X505979Y333968D01*
X515976Y332302D02*
X509311D01*
X515976Y338966D01*
Y340632D01*
X514310Y342298D01*
X510978D01*
X509311Y340632D01*
X479321Y383102D02*
Y389766D01*
X482653Y393098D01*
X485986Y389766D01*
Y383102D01*
Y388100D01*
X479321D01*
X489318Y393098D02*
Y383102D01*
X494316D01*
X495982Y384768D01*
Y391432D01*
X494316Y393098D01*
X489318D01*
X505979Y391432D02*
X504313Y393098D01*
X500981D01*
X499315Y391432D01*
Y384768D01*
X500981Y383102D01*
X504313D01*
X505979Y384768D01*
X509311Y391432D02*
X510978Y393098D01*
X514310D01*
X515976Y391432D01*
Y389766D01*
X514310Y388100D01*
X512644D01*
X514310D01*
X515976Y386434D01*
Y384768D01*
X514310Y383102D01*
X510978D01*
X509311Y384768D01*
X284024Y315232D02*
X285690Y316898D01*
X289022D01*
X290688Y315232D01*
Y313566D01*
X289022Y311900D01*
X287356D01*
X289022D01*
X290688Y310234D01*
Y308568D01*
X289022Y306902D01*
X285690D01*
X284024Y308568D01*
X294021Y316898D02*
Y310234D01*
X297353Y306902D01*
X300685Y310234D01*
Y316898D01*
X304018Y315232D02*
X305684Y316898D01*
X309016D01*
X310682Y315232D01*
Y313566D01*
X309016Y311900D01*
X307350D01*
X309016D01*
X310682Y310234D01*
Y308568D01*
X309016Y306902D01*
X305684D01*
X304018Y308568D01*
X290688Y340632D02*
X289022Y342298D01*
X285690D01*
X284024Y340632D01*
Y333968D01*
X285690Y332302D01*
X289022D01*
X290688Y333968D01*
Y337300D01*
X287356D01*
X294021Y332302D02*
Y342298D01*
X300685Y332302D01*
Y342298D01*
X304018D02*
Y332302D01*
X309016D01*
X310682Y333968D01*
Y340632D01*
X309016Y342298D01*
X304018D01*
X284024Y367698D02*
Y357702D01*
X289022D01*
X290688Y359368D01*
Y366032D01*
X289022Y367698D01*
X284024D01*
X294021D02*
X297353D01*
X295687D01*
Y357702D01*
X294021D01*
X297353D01*
X307350Y367698D02*
X304018D01*
X302351Y366032D01*
Y359368D01*
X304018Y357702D01*
X307350D01*
X309016Y359368D01*
Y366032D01*
X307350Y367698D01*
X290688Y391432D02*
X289022Y393098D01*
X285690D01*
X284024Y391432D01*
Y384768D01*
X285690Y383102D01*
X289022D01*
X290688Y384768D01*
X294021Y393098D02*
Y383102D01*
X300685D01*
X304018Y393098D02*
Y383102D01*
Y386434D01*
X310682Y393098D01*
X305684Y388100D01*
X310682Y383102D01*
M02*
