M48
;Layer_Color=9474304
;FILE_FORMAT=2:5
INCH
;TYPE=PLATED
T01F00S00C0.01181
%
T01
X0314961Y0302874
X0344094Y0307205
X0346595Y0295276
X0361811Y0307205
X0285827
X0283327Y0295276
X0268110Y0307205
X0271654Y0332677
X0281496
X0291339
X0299213Y0334646
X0305118Y0332677
Y0352362
X0291339
X0281496
X0271654
X0287638Y0403839
X0294291Y0398622
X0308071Y0398622
X0305118Y0387795
X0321850Y0398622
X0335630Y0398622
X0342284Y0403839
X0342520Y0387795
X0338583Y0352362
X0348425
X0358268
Y0332677
X0348425
X0338583
X0330709Y0334646
X0324803Y0332677
X0314961
Y0352362
X0324803
M30
