G04*
G04 #@! TF.GenerationSoftware,Altium Limited,Altium Designer,24.5.2 (23)*
G04*
G04 Layer_Physical_Order=4*
G04 Layer_Color=16711680*
%FSLAX25Y25*%
%MOIN*%
G70*
G04*
G04 #@! TF.SameCoordinates,F2F2F76E-C4BA-41CE-B390-5C05024D07D6*
G04*
G04*
G04 #@! TF.FilePolarity,Positive*
G04*
G01*
G75*
%ADD36C,0.02000*%
%ADD37C,0.01000*%
%ADD39O,0.03543X0.06693*%
%ADD40O,0.03543X0.07874*%
%ADD41C,0.02362*%
%ADD42C,0.01968*%
G36*
X98425Y74803D02*
X78740Y55118D01*
X59055Y74803D01*
X78740Y94488D01*
X98425Y74803D01*
D02*
G37*
%LPC*%
G36*
X78740Y84878D02*
X78350Y84800D01*
X78019Y84579D01*
X68964Y75524D01*
X68743Y75193D01*
X68665Y74803D01*
X68743Y74413D01*
X68964Y74082D01*
X78019Y65027D01*
X78350Y64806D01*
X78740Y64728D01*
X79130Y64806D01*
X79461Y65027D01*
X88516Y74082D01*
X88737Y74413D01*
X88815Y74803D01*
X88737Y75193D01*
X88516Y75524D01*
X79461Y84579D01*
X79130Y84800D01*
X78740Y84878D01*
D02*
G37*
%LPD*%
G36*
X87795Y74803D02*
X78740Y65748D01*
X69685Y74803D01*
X78740Y83858D01*
X87795Y74803D01*
D02*
G37*
D36*
X113386Y31496D02*
X118504Y36614D01*
X118514D02*
Y117126D01*
X113592Y122047D02*
X118514Y117126D01*
X83080Y122047D02*
X113592D01*
X81506Y123622D02*
X83080Y122047D01*
X78745Y123622D02*
X81506D01*
X75984D02*
X78745D01*
X74409Y122047D02*
X75984Y123622D01*
X43898Y122047D02*
X74409D01*
X38976Y117126D02*
X43898Y122047D01*
X88618Y109878D02*
X88653Y104846D01*
X78099Y88043D02*
X88688Y98633D01*
Y104846D01*
X38976Y36614D02*
X44094Y31496D01*
X38976Y36614D02*
Y117126D01*
X96063Y74803D02*
X97638D01*
X88583Y82284D02*
X92520Y86221D01*
X43701Y125984D02*
X62598D01*
X94882D02*
X113779D01*
D37*
X45669Y118504D02*
X61024D01*
X42913Y115748D02*
X45669Y118504D01*
X42913Y85433D02*
Y115748D01*
X94095Y26772D02*
X106693Y39370D01*
X96063Y24409D02*
X96229Y24576D01*
Y25757D01*
X108268Y37795D01*
X101005Y26161D02*
Y26989D01*
Y26161D02*
X102756Y24409D01*
X101005Y26989D02*
X109843Y35827D01*
X104724Y26772D02*
X111417Y33465D01*
X106693Y39370D02*
Y50394D01*
X105905Y51181D02*
X106693Y50394D01*
X108268Y37795D02*
Y52756D01*
X105905Y55118D02*
X108268Y52756D01*
X109843Y35827D02*
Y55118D01*
X111417Y33465D02*
Y57480D01*
X105905Y59055D02*
X109843Y55118D01*
X105905Y62992D02*
X111417Y57480D01*
X44488Y86221D02*
X90158Y40551D01*
X103937D01*
X44488Y86221D02*
Y96568D01*
X45394Y97473D01*
Y97638D01*
X42913Y85433D02*
X69291Y59055D01*
Y26772D02*
Y59055D01*
X61024Y49213D02*
X64567Y45669D01*
X61024Y49213D02*
Y63779D01*
X57480Y48425D02*
X61417Y44488D01*
X57480Y48425D02*
Y63779D01*
X61417Y26772D02*
Y44488D01*
X64567Y26772D02*
Y45669D01*
D39*
X36122Y149606D02*
D03*
X70177D02*
D03*
X121358D02*
D03*
X87303D02*
D03*
D40*
X36122Y133189D02*
D03*
X70177D02*
D03*
X121358D02*
D03*
X87303D02*
D03*
D41*
X41772Y135118D02*
D03*
X64528D02*
D03*
X115709D02*
D03*
X92953D02*
D03*
D42*
X71406Y68256D02*
D03*
X78099Y88043D02*
D03*
X88618Y109878D02*
D03*
X88688Y104846D02*
D03*
X59055Y19685D02*
D03*
X66929D02*
D03*
X74803D02*
D03*
X82677D02*
D03*
X90551D02*
D03*
X98425D02*
D03*
X106299D02*
D03*
X51181D02*
D03*
X61024Y100394D02*
D03*
X44094Y31496D02*
D03*
X113583D02*
D03*
X78745Y123622D02*
D03*
X61024Y63779D02*
D03*
X57480D02*
D03*
X56693Y88583D02*
D03*
X69291Y26772D02*
D03*
X45394Y97638D02*
D03*
X66929Y42913D02*
D03*
X64567Y26772D02*
D03*
X61417D02*
D03*
X92520Y86221D02*
D03*
X103937Y40551D02*
D03*
X104724Y26772D02*
D03*
X102756Y24409D02*
D03*
X96063D02*
D03*
X94095Y26772D02*
D03*
X83071Y64933D02*
D03*
X81533Y77596D02*
D03*
Y72010D02*
D03*
X75947D02*
D03*
Y77596D02*
D03*
X68716Y79259D02*
D03*
X97638Y74803D02*
D03*
X114567Y51181D02*
D03*
Y55118D02*
D03*
Y59055D02*
D03*
Y62992D02*
D03*
X94488Y102756D02*
D03*
X61024Y118504D02*
D03*
X64925Y118469D02*
D03*
X78740Y114527D02*
D03*
X100394Y109843D02*
D03*
X57087D02*
D03*
X43701Y125984D02*
D03*
X62598D02*
D03*
X113779D02*
D03*
X94882D02*
D03*
X97441Y135236D02*
D03*
X92520Y118574D02*
D03*
X96457D02*
D03*
X109252Y135236D02*
D03*
X105905Y55118D02*
D03*
Y51181D02*
D03*
Y59055D02*
D03*
Y62992D02*
D03*
X94488Y42913D02*
D03*
X114567Y68898D02*
D03*
Y90551D02*
D03*
Y84646D02*
D03*
X46063Y44094D02*
D03*
X52362Y62205D02*
D03*
M02*
