M48
;Layer_Color=9474304
;FILE_FORMAT=2:5
INCH
;TYPE=PLATED
T01F00S00C0.01181
%
T01
X0051181Y0019685
X0059055
X0066929
X0074803
X0082677
X0090551
X0098425
X0096063Y0024409
X0094095Y0026772
X0104724
X0102756Y0024409
X0106299Y0019685
X0113583Y0031496
X0103937Y0040551
X0094488Y0042913
X0105905Y0051181
Y0055118
Y0059055
Y0062992
X0114567
Y0059055
Y0055118
Y0051181
Y0068898
Y0084646
Y0090551
X0092520Y0086221
X0078099Y0088043
X0075947Y0077596
X0081533
Y0072010
X0075947
X0071406Y0068256
X0068716Y0079259
X0056693Y0088583
X0061024Y0100394
X0057087Y0109843
X0061024Y0118504
X0064925Y0118469
X0062598Y0125984
X0078745Y0123622
X0078740Y0114527
X0088618Y0109878
X0088688Y0104846
X0094488Y0102756
X0100394Y0109843
X0096457Y0118574
X0092520
X0094882Y0125984
X0097441Y0135236
X0109252
X0113779Y0125984
X0097638Y0074803
X0083071Y0064933
X0061024Y0063779
X0057480
X0052362Y0062205
X0046063Y0044094
X0044094Y0031496
X0061417Y0026772
X0064567
X0069291
X0066929Y0042913
X0045394Y0097638
X0043701Y0125984
M30
