G04*
G04 #@! TF.GenerationSoftware,Altium Limited,Altium Designer,24.5.2 (23)*
G04*
G04 Layer_Physical_Order=3*
G04 Layer_Color=16440176*
%FSLAX25Y25*%
%MOIN*%
G70*
G04*
G04 #@! TF.SameCoordinates,F2F2F76E-C4BA-41CE-B390-5C05024D07D6*
G04*
G04*
G04 #@! TF.FilePolarity,Positive*
G04*
G01*
G75*
%ADD37C,0.01000*%
%ADD39O,0.03543X0.06693*%
%ADD40O,0.03543X0.07874*%
%ADD41C,0.02362*%
%ADD42C,0.01968*%
G36*
X125984Y15748D02*
X31496D01*
Y157480D01*
X125984D01*
Y15748D01*
D02*
G37*
%LPC*%
G36*
X121858Y153911D02*
Y150106D01*
X124154D01*
Y151181D01*
X124059Y151905D01*
X123779Y152579D01*
X123335Y153158D01*
X122756Y153602D01*
X122082Y153881D01*
X121858Y153911D01*
D02*
G37*
G36*
X87803D02*
Y150106D01*
X90099D01*
Y151181D01*
X90004Y151905D01*
X89724Y152579D01*
X89280Y153158D01*
X88701Y153602D01*
X88027Y153881D01*
X87803Y153911D01*
D02*
G37*
G36*
X70677D02*
Y150106D01*
X72973D01*
Y151181D01*
X72878Y151905D01*
X72598Y152579D01*
X72154Y153158D01*
X71575Y153602D01*
X70901Y153881D01*
X70677Y153911D01*
D02*
G37*
G36*
X36622D02*
Y150106D01*
X38918D01*
Y151181D01*
X38822Y151905D01*
X38543Y152579D01*
X38099Y153158D01*
X37520Y153602D01*
X36846Y153881D01*
X36622Y153911D01*
D02*
G37*
G36*
X120858D02*
X120635Y153881D01*
X119960Y153602D01*
X119381Y153158D01*
X118937Y152579D01*
X118658Y151905D01*
X118563Y151181D01*
Y150106D01*
X120858D01*
Y153911D01*
D02*
G37*
G36*
X86803D02*
X86580Y153881D01*
X85905Y153602D01*
X85326Y153158D01*
X84882Y152579D01*
X84603Y151905D01*
X84508Y151181D01*
Y150106D01*
X86803D01*
Y153911D01*
D02*
G37*
G36*
X69677D02*
X69454Y153881D01*
X68779Y153602D01*
X68200Y153158D01*
X67756Y152579D01*
X67477Y151905D01*
X67382Y151181D01*
Y150106D01*
X69677D01*
Y153911D01*
D02*
G37*
G36*
X35622D02*
X35399Y153881D01*
X34724Y153602D01*
X34145Y153158D01*
X33701Y152579D01*
X33422Y151905D01*
X33327Y151181D01*
Y150106D01*
X35622D01*
Y153911D01*
D02*
G37*
G36*
X124154Y149106D02*
X121858D01*
Y145302D01*
X122082Y145331D01*
X122756Y145610D01*
X123335Y146055D01*
X123779Y146634D01*
X124059Y147308D01*
X124154Y148031D01*
Y149106D01*
D02*
G37*
G36*
X38918D02*
X36622D01*
Y145302D01*
X36846Y145331D01*
X37520Y145610D01*
X38099Y146055D01*
X38543Y146634D01*
X38822Y147308D01*
X38918Y148031D01*
Y149106D01*
D02*
G37*
G36*
X90099D02*
X87803D01*
Y145302D01*
X88027Y145331D01*
X88701Y145610D01*
X89280Y146055D01*
X89724Y146634D01*
X90004Y147308D01*
X90099Y148031D01*
Y149106D01*
D02*
G37*
G36*
X72973D02*
X70677D01*
Y145302D01*
X70901Y145331D01*
X71575Y145610D01*
X72154Y146055D01*
X72598Y146634D01*
X72878Y147308D01*
X72973Y148031D01*
Y149106D01*
D02*
G37*
G36*
X86803D02*
X84508D01*
Y148031D01*
X84603Y147308D01*
X84882Y146634D01*
X85326Y146055D01*
X85905Y145610D01*
X86580Y145331D01*
X86803Y145302D01*
Y149106D01*
D02*
G37*
G36*
X69677D02*
X67382D01*
Y148031D01*
X67477Y147308D01*
X67756Y146634D01*
X68200Y146055D01*
X68779Y145610D01*
X69454Y145331D01*
X69677Y145302D01*
Y149106D01*
D02*
G37*
G36*
X35622D02*
X33327D01*
Y148031D01*
X33422Y147308D01*
X33701Y146634D01*
X34145Y146055D01*
X34724Y145610D01*
X35399Y145331D01*
X35622Y145302D01*
Y149106D01*
D02*
G37*
G36*
X120858D02*
X118563D01*
Y148031D01*
X118658Y147308D01*
X118937Y146634D01*
X119381Y146055D01*
X119960Y145610D01*
X120635Y145331D01*
X120858Y145302D01*
Y149106D01*
D02*
G37*
G36*
X79167Y147083D02*
X78314D01*
X78215Y147063D01*
X78115D01*
X77278Y146897D01*
X77185Y146858D01*
X77087Y146838D01*
X76299Y146512D01*
X76215Y146456D01*
X76122Y146418D01*
X75413Y145944D01*
X75342Y145873D01*
X75258Y145817D01*
X74655Y145214D01*
X74599Y145130D01*
X74528Y145059D01*
X74055Y144350D01*
X74016Y144257D01*
X73960Y144174D01*
X73634Y143386D01*
X73614Y143287D01*
X73576Y143194D01*
X73409Y142358D01*
Y142257D01*
X73390Y142159D01*
Y141306D01*
X73409Y141207D01*
Y141107D01*
X73576Y140270D01*
X73614Y140177D01*
X73634Y140079D01*
X73960Y139291D01*
X74016Y139207D01*
X74055Y139114D01*
X74528Y138405D01*
X74599Y138334D01*
X74655Y138251D01*
X75258Y137647D01*
X75342Y137592D01*
X75413Y137521D01*
X76122Y137047D01*
X76215Y137008D01*
X76299Y136952D01*
X77087Y136626D01*
X77185Y136606D01*
X77278Y136568D01*
X78115Y136402D01*
X78215D01*
X78314Y136382D01*
X79167D01*
X79265Y136402D01*
X79366D01*
X80202Y136568D01*
X80295Y136606D01*
X80394Y136626D01*
X81182Y136952D01*
X81265Y137008D01*
X81358Y137047D01*
X82067Y137521D01*
X82138Y137592D01*
X82222Y137647D01*
X82825Y138251D01*
X82881Y138334D01*
X82952Y138405D01*
X83426Y139114D01*
X83464Y139207D01*
X83520Y139291D01*
X83846Y140079D01*
X83866Y140177D01*
X83904Y140270D01*
X84071Y141107D01*
Y141207D01*
X84091Y141306D01*
Y142159D01*
X84071Y142257D01*
Y142358D01*
X83904Y143194D01*
X83866Y143287D01*
X83846Y143386D01*
X83520Y144174D01*
X83464Y144257D01*
X83426Y144350D01*
X82952Y145059D01*
X82881Y145130D01*
X82825Y145214D01*
X82222Y145817D01*
X82138Y145873D01*
X82067Y145944D01*
X81358Y146418D01*
X81265Y146456D01*
X81182Y146512D01*
X80394Y146838D01*
X80295Y146858D01*
X80202Y146897D01*
X79366Y147063D01*
X79265D01*
X79167Y147083D01*
D02*
G37*
G36*
X69677Y138084D02*
X69454Y138055D01*
X68779Y137775D01*
X68200Y137331D01*
X67756Y136752D01*
X67525Y136194D01*
X67150Y136091D01*
X66474Y136119D01*
X66377Y136354D01*
X65763Y136967D01*
X64961Y137299D01*
X64094D01*
X63292Y136967D01*
X62678Y136354D01*
X62347Y135552D01*
Y134684D01*
X62678Y133883D01*
X63292Y133269D01*
X64094Y132937D01*
X64961D01*
X65763Y133269D01*
X66377Y133883D01*
X66382Y133895D01*
X67382Y133696D01*
Y133689D01*
X69677D01*
Y138084D01*
D02*
G37*
G36*
X120858D02*
X120635Y138055D01*
X119960Y137775D01*
X119381Y137331D01*
X118937Y136752D01*
X118706Y136194D01*
X118331Y136091D01*
X117655Y136119D01*
X117558Y136354D01*
X116944Y136967D01*
X116142Y137299D01*
X115275D01*
X114473Y136967D01*
X113860Y136354D01*
X113528Y135552D01*
Y134684D01*
X113860Y133883D01*
X114473Y133269D01*
X115275Y132937D01*
X116142D01*
X116944Y133269D01*
X117558Y133883D01*
X117563Y133895D01*
X118563Y133696D01*
Y133689D01*
X120858D01*
Y138084D01*
D02*
G37*
G36*
X121858D02*
Y133689D01*
X124154D01*
Y135354D01*
X124059Y136078D01*
X123779Y136752D01*
X123335Y137331D01*
X122756Y137775D01*
X122082Y138055D01*
X121858Y138084D01*
D02*
G37*
G36*
X70677D02*
Y133689D01*
X72973D01*
Y135354D01*
X72878Y136078D01*
X72598Y136752D01*
X72154Y137331D01*
X71575Y137775D01*
X70901Y138055D01*
X70677Y138084D01*
D02*
G37*
G36*
X86803D02*
X86580Y138055D01*
X85905Y137775D01*
X85326Y137331D01*
X84882Y136752D01*
X84603Y136078D01*
X84508Y135354D01*
Y133689D01*
X86803D01*
Y138084D01*
D02*
G37*
G36*
X35622D02*
X35399Y138055D01*
X34724Y137775D01*
X34145Y137331D01*
X33701Y136752D01*
X33422Y136078D01*
X33327Y135354D01*
Y133689D01*
X35622D01*
Y138084D01*
D02*
G37*
G36*
X36622D02*
Y133689D01*
X38918D01*
Y133696D01*
X39918Y133895D01*
X39923Y133883D01*
X40536Y133269D01*
X41338Y132937D01*
X42206D01*
X43007Y133269D01*
X43621Y133883D01*
X43953Y134684D01*
Y135552D01*
X43621Y136354D01*
X43007Y136967D01*
X42206Y137299D01*
X41338D01*
X40536Y136967D01*
X39923Y136354D01*
X39825Y136119D01*
X39149Y136091D01*
X38774Y136194D01*
X38543Y136752D01*
X38099Y137331D01*
X37520Y137775D01*
X36846Y138055D01*
X36622Y138084D01*
D02*
G37*
G36*
X38918Y132689D02*
X36622D01*
Y128294D01*
X36846Y128323D01*
X37520Y128603D01*
X38099Y129047D01*
X38543Y129626D01*
X38822Y130300D01*
X38918Y131024D01*
Y132689D01*
D02*
G37*
G36*
X124154D02*
X121858D01*
Y128294D01*
X122082Y128323D01*
X122756Y128603D01*
X123335Y129047D01*
X123779Y129626D01*
X124059Y130300D01*
X124154Y131024D01*
Y132689D01*
D02*
G37*
G36*
X90099D02*
X87803D01*
Y128294D01*
X88027Y128323D01*
X88701Y128603D01*
X89280Y129047D01*
X89724Y129626D01*
X90004Y130300D01*
X90099Y131024D01*
Y132689D01*
D02*
G37*
G36*
X72973D02*
X70677D01*
Y128294D01*
X70901Y128323D01*
X71575Y128603D01*
X72154Y129047D01*
X72598Y129626D01*
X72878Y130300D01*
X72973Y131024D01*
Y132689D01*
D02*
G37*
G36*
X120858D02*
X118563D01*
Y131024D01*
X118658Y130300D01*
X118937Y129626D01*
X119381Y129047D01*
X119960Y128603D01*
X120635Y128323D01*
X120858Y128294D01*
Y132689D01*
D02*
G37*
G36*
X86803D02*
X84508D01*
Y131024D01*
X84603Y130300D01*
X84882Y129626D01*
X85326Y129047D01*
X85905Y128603D01*
X86580Y128323D01*
X86803Y128294D01*
Y132689D01*
D02*
G37*
G36*
X69677D02*
X67382D01*
Y131024D01*
X67477Y130300D01*
X67756Y129626D01*
X68200Y129047D01*
X68779Y128603D01*
X69454Y128323D01*
X69677Y128294D01*
Y132689D01*
D02*
G37*
G36*
X35622D02*
X33327D01*
Y131024D01*
X33422Y130300D01*
X33701Y129626D01*
X34145Y129047D01*
X34724Y128603D01*
X35399Y128323D01*
X35622Y128294D01*
Y132689D01*
D02*
G37*
G36*
X114174Y127969D02*
X113385D01*
X112655Y127666D01*
X112097Y127108D01*
X111795Y126379D01*
Y125590D01*
X112097Y124860D01*
X112655Y124302D01*
X113385Y124000D01*
X114174D01*
X114903Y124302D01*
X115462Y124860D01*
X115764Y125590D01*
Y126379D01*
X115462Y127108D01*
X114903Y127666D01*
X114174Y127969D01*
D02*
G37*
G36*
X62993D02*
X62204D01*
X61474Y127666D01*
X60916Y127108D01*
X60614Y126379D01*
Y125590D01*
X60916Y124860D01*
X61474Y124302D01*
X62204Y124000D01*
X62993D01*
X63722Y124302D01*
X64281Y124860D01*
X64583Y125590D01*
Y126379D01*
X64281Y127108D01*
X63722Y127666D01*
X62993Y127969D01*
D02*
G37*
G36*
X44096D02*
X43306D01*
X42577Y127666D01*
X42019Y127108D01*
X41717Y126379D01*
Y125590D01*
X42019Y124860D01*
X42577Y124302D01*
X43306Y124000D01*
X44096D01*
X44825Y124302D01*
X45383Y124860D01*
X45685Y125590D01*
Y126379D01*
X45383Y127108D01*
X44825Y127666D01*
X44096Y127969D01*
D02*
G37*
G36*
X79140Y125606D02*
X78350D01*
X77621Y125304D01*
X77063Y124746D01*
X76761Y124017D01*
Y123227D01*
X77063Y122498D01*
X77621Y121940D01*
X78350Y121638D01*
X79140D01*
X79869Y121940D01*
X80427Y122498D01*
X80729Y123227D01*
Y124017D01*
X80427Y124746D01*
X79869Y125304D01*
X79140Y125606D01*
D02*
G37*
G36*
X87803Y138084D02*
Y133689D01*
X90099D01*
Y133696D01*
X91099Y133895D01*
X91104Y133883D01*
X91717Y133269D01*
X92519Y132937D01*
X93387D01*
X94188Y133269D01*
X94802Y133883D01*
X94911Y133909D01*
X95575Y133580D01*
X95912Y133248D01*
Y128393D01*
X95277Y127969D01*
X94487D01*
X93758Y127666D01*
X93200Y127108D01*
X92898Y126379D01*
Y125590D01*
X93200Y124860D01*
X93758Y124302D01*
X94403Y124035D01*
X94598Y123624D01*
X94782Y123000D01*
X92341Y120559D01*
X92125D01*
X91396Y120257D01*
X90838Y119698D01*
X90535Y118969D01*
Y118180D01*
X90838Y117450D01*
X91396Y116892D01*
X92125Y116590D01*
X92914D01*
X93644Y116892D01*
X93841Y117090D01*
X94488Y117340D01*
X95135Y117090D01*
X95333Y116892D01*
X96062Y116590D01*
X96851D01*
X97581Y116892D01*
X98139Y117450D01*
X98441Y118180D01*
Y118396D01*
X101081Y121036D01*
X101413Y121532D01*
X101529Y122118D01*
Y125351D01*
X109431Y133252D01*
X109647D01*
X110376Y133554D01*
X110934Y134112D01*
X111236Y134842D01*
Y135631D01*
X110934Y136360D01*
X110376Y136918D01*
X109647Y137221D01*
X108857D01*
X108128Y136918D01*
X107570Y136360D01*
X107268Y135631D01*
Y135415D01*
X99894Y128041D01*
X98970Y128424D01*
Y133959D01*
X99123Y134112D01*
X99425Y134842D01*
Y135631D01*
X99123Y136360D01*
X98565Y136918D01*
X97836Y137221D01*
X97046D01*
X96317Y136918D01*
X95846Y136447D01*
X95293Y136398D01*
X94711Y136444D01*
X94188Y136967D01*
X93387Y137299D01*
X92519D01*
X91717Y136967D01*
X91104Y136354D01*
X91007Y136119D01*
X90330Y136091D01*
X89955Y136194D01*
X89724Y136752D01*
X89280Y137331D01*
X88701Y137775D01*
X88027Y138055D01*
X87803Y138084D01*
D02*
G37*
G36*
X61418Y120488D02*
X60629D01*
X59900Y120186D01*
X59342Y119628D01*
X59039Y118899D01*
Y118109D01*
X59342Y117380D01*
X59900Y116822D01*
X60629Y116520D01*
X61418D01*
X62148Y116822D01*
X62706Y117380D01*
X63008Y118109D01*
Y118899D01*
X62706Y119628D01*
X62148Y120186D01*
X61418Y120488D01*
D02*
G37*
G36*
X89013Y111862D02*
X88223D01*
X87494Y111560D01*
X86936Y111002D01*
X86634Y110273D01*
Y109483D01*
X86936Y108754D01*
X87494Y108196D01*
X88223Y107894D01*
X89013D01*
X89742Y108196D01*
X90300Y108754D01*
X90602Y109483D01*
Y110273D01*
X90300Y111002D01*
X89742Y111560D01*
X89013Y111862D01*
D02*
G37*
G36*
X89083Y106830D02*
X88294D01*
X87564Y106528D01*
X87006Y105970D01*
X86704Y105241D01*
Y104451D01*
X87006Y103722D01*
X87564Y103164D01*
X88294Y102862D01*
X89083D01*
X89812Y103164D01*
X90371Y103722D01*
X90673Y104451D01*
Y105241D01*
X90371Y105970D01*
X89812Y106528D01*
X89083Y106830D01*
D02*
G37*
G36*
X45788Y99622D02*
X44999D01*
X44270Y99320D01*
X43712Y98762D01*
X43409Y98032D01*
Y97243D01*
X43712Y96514D01*
X44270Y95956D01*
X44999Y95653D01*
X45788D01*
X46518Y95956D01*
X47076Y96514D01*
X47378Y97243D01*
Y98032D01*
X47076Y98762D01*
X46518Y99320D01*
X45788Y99622D01*
D02*
G37*
G36*
X78493Y90027D02*
X77704D01*
X76975Y89725D01*
X76416Y89167D01*
X76114Y88438D01*
Y87648D01*
X76416Y86919D01*
X76975Y86361D01*
X77704Y86059D01*
X78493D01*
X79223Y86361D01*
X79781Y86919D01*
X80083Y87648D01*
Y88438D01*
X79781Y89167D01*
X79223Y89725D01*
X78493Y90027D01*
D02*
G37*
G36*
X92914Y88205D02*
X92125D01*
X91396Y87903D01*
X90838Y87344D01*
X90535Y86615D01*
Y85826D01*
X90838Y85097D01*
X91396Y84538D01*
X92125Y84236D01*
X92914D01*
X93644Y84538D01*
X94202Y85097D01*
X94504Y85826D01*
Y86615D01*
X94202Y87344D01*
X93644Y87903D01*
X92914Y88205D01*
D02*
G37*
G36*
X69111Y81243D02*
X68322D01*
X67592Y80941D01*
X67034Y80383D01*
X66732Y79654D01*
Y78865D01*
X67034Y78135D01*
X67592Y77577D01*
X68322Y77275D01*
X69111D01*
X69840Y77577D01*
X70398Y78135D01*
X70701Y78865D01*
Y79654D01*
X70398Y80383D01*
X69840Y80941D01*
X69111Y81243D01*
D02*
G37*
G36*
X98032Y76787D02*
X97243D01*
X96514Y76485D01*
X95956Y75927D01*
X95653Y75198D01*
Y74409D01*
X95956Y73679D01*
X96514Y73121D01*
X97243Y72819D01*
X98032D01*
X98762Y73121D01*
X99320Y73679D01*
X99622Y74409D01*
Y75198D01*
X99320Y75927D01*
X98762Y76485D01*
X98032Y76787D01*
D02*
G37*
G36*
X71800Y70240D02*
X71011D01*
X70282Y69938D01*
X69723Y69380D01*
X69421Y68651D01*
Y67861D01*
X69723Y67132D01*
X70282Y66574D01*
X71011Y66272D01*
X71800D01*
X72530Y66574D01*
X73088Y67132D01*
X73390Y67861D01*
Y68651D01*
X73088Y69380D01*
X72530Y69938D01*
X71800Y70240D01*
D02*
G37*
G36*
X61418Y65764D02*
X60629D01*
X59900Y65462D01*
X59252Y64971D01*
X58604Y65462D01*
X57875Y65764D01*
X57086D01*
X56356Y65462D01*
X55798Y64903D01*
X55496Y64174D01*
Y63385D01*
X55798Y62656D01*
X56356Y62097D01*
X57086Y61795D01*
X57875D01*
X58604Y62097D01*
X59252Y62588D01*
X59900Y62097D01*
X60629Y61795D01*
X61418D01*
X62148Y62097D01*
X62706Y62656D01*
X63008Y63385D01*
Y64174D01*
X62706Y64903D01*
X62148Y65462D01*
X61418Y65764D01*
D02*
G37*
G36*
X83466Y66917D02*
X82676D01*
X81947Y66615D01*
X81389Y66057D01*
X81087Y65327D01*
Y64538D01*
X81389Y63809D01*
X81947Y63250D01*
X82676Y62948D01*
X83466D01*
X84195Y63250D01*
X84753Y63809D01*
X85055Y64538D01*
Y65327D01*
X84753Y66057D01*
X84195Y66615D01*
X83466Y66917D01*
D02*
G37*
G36*
X106300Y64976D02*
X105511D01*
X104781Y64674D01*
X104223Y64116D01*
X103921Y63387D01*
Y62597D01*
X104223Y61868D01*
X104421Y61670D01*
X104671Y61024D01*
X104421Y60377D01*
X104223Y60179D01*
X103921Y59450D01*
Y58660D01*
X104223Y57931D01*
X104421Y57733D01*
X104671Y57087D01*
X104421Y56440D01*
X104223Y56242D01*
X103921Y55513D01*
Y54723D01*
X104223Y53994D01*
X104421Y53796D01*
X104671Y53150D01*
X104421Y52503D01*
X104223Y52305D01*
X103921Y51576D01*
Y50786D01*
X104223Y50057D01*
X104781Y49499D01*
X105511Y49197D01*
X106300D01*
X107029Y49499D01*
X107588Y50057D01*
X107890Y50786D01*
Y51576D01*
X107588Y52305D01*
X107390Y52503D01*
X107140Y53150D01*
X107390Y53796D01*
X107588Y53994D01*
X107890Y54723D01*
Y55513D01*
X107588Y56242D01*
X107390Y56440D01*
X107140Y57087D01*
X107390Y57733D01*
X107588Y57931D01*
X107890Y58660D01*
Y59450D01*
X107588Y60179D01*
X107390Y60377D01*
X107140Y61024D01*
X107390Y61670D01*
X107588Y61868D01*
X107890Y62597D01*
Y63387D01*
X107588Y64116D01*
X107029Y64674D01*
X106300Y64976D01*
D02*
G37*
G36*
X104332Y42535D02*
X103542D01*
X102813Y42233D01*
X102255Y41675D01*
X101953Y40946D01*
Y40156D01*
X102255Y39427D01*
X102813Y38869D01*
X103542Y38567D01*
X104332D01*
X105061Y38869D01*
X105619Y39427D01*
X105921Y40156D01*
Y40946D01*
X105619Y41675D01*
X105061Y42233D01*
X104332Y42535D01*
D02*
G37*
G36*
X113977Y33480D02*
X113188D01*
X112459Y33178D01*
X111900Y32620D01*
X111598Y31891D01*
Y31101D01*
X111900Y30372D01*
X112459Y29814D01*
X113188Y29512D01*
X113977D01*
X114707Y29814D01*
X115265Y30372D01*
X115567Y31101D01*
Y31891D01*
X115265Y32620D01*
X114707Y33178D01*
X113977Y33480D01*
D02*
G37*
G36*
X44489D02*
X43700D01*
X42970Y33178D01*
X42412Y32620D01*
X42110Y31891D01*
Y31101D01*
X42412Y30372D01*
X42970Y29814D01*
X43700Y29512D01*
X44489D01*
X45219Y29814D01*
X45777Y30372D01*
X46079Y31101D01*
Y31891D01*
X45777Y32620D01*
X45219Y33178D01*
X44489Y33480D01*
D02*
G37*
G36*
X69686Y28756D02*
X68897D01*
X68167Y28454D01*
X67609Y27896D01*
X67470Y27560D01*
X66388D01*
X66249Y27896D01*
X65691Y28454D01*
X64962Y28756D01*
X64172D01*
X63443Y28454D01*
X62992Y28003D01*
X62541Y28454D01*
X61812Y28756D01*
X61023D01*
X60293Y28454D01*
X59735Y27896D01*
X59433Y27166D01*
Y26377D01*
X59735Y25648D01*
X60293Y25089D01*
X61023Y24787D01*
X61812D01*
X62541Y25089D01*
X62992Y25540D01*
X63443Y25089D01*
X64172Y24787D01*
X64962D01*
X65691Y25089D01*
X66249Y25648D01*
X66388Y25983D01*
X67470D01*
X67609Y25648D01*
X68167Y25089D01*
X68897Y24787D01*
X69686D01*
X70415Y25089D01*
X70973Y25648D01*
X71276Y26377D01*
Y27166D01*
X70973Y27896D01*
X70415Y28454D01*
X69686Y28756D01*
D02*
G37*
G36*
X105119D02*
X104330D01*
X103600Y28454D01*
X103042Y27896D01*
X102740Y27166D01*
Y26394D01*
X102361D01*
X101632Y26092D01*
X101074Y25533D01*
X100772Y24804D01*
Y24015D01*
X101074Y23286D01*
X101632Y22727D01*
X102361Y22425D01*
X103151D01*
X103880Y22727D01*
X104438Y23286D01*
X104740Y24015D01*
Y24787D01*
X105119D01*
X105848Y25089D01*
X106407Y25648D01*
X106709Y26377D01*
Y27166D01*
X106407Y27896D01*
X105848Y28454D01*
X105119Y28756D01*
D02*
G37*
G36*
X94489D02*
X93700D01*
X92971Y28454D01*
X92412Y27896D01*
X92110Y27166D01*
Y26377D01*
X92412Y25648D01*
X92971Y25089D01*
X93700Y24787D01*
X94079D01*
Y24015D01*
X94381Y23286D01*
X94939Y22727D01*
X95668Y22425D01*
X96458D01*
X97187Y22727D01*
X97745Y23286D01*
X98047Y24015D01*
Y24804D01*
X97745Y25533D01*
X97187Y26092D01*
X96458Y26394D01*
X96079D01*
Y27166D01*
X95777Y27896D01*
X95218Y28454D01*
X94489Y28756D01*
D02*
G37*
%LPD*%
D37*
X100000Y125984D02*
X109252Y135236D01*
X96457Y118574D02*
X100000Y122118D01*
Y125984D01*
X97441Y123496D02*
Y135236D01*
X92520Y118574D02*
X97441Y123496D01*
D39*
X36122Y149606D02*
D03*
X70177D02*
D03*
X121358D02*
D03*
X87303D02*
D03*
D40*
X36122Y133189D02*
D03*
X70177D02*
D03*
X121358D02*
D03*
X87303D02*
D03*
D41*
X41772Y135118D02*
D03*
X64528D02*
D03*
X115709D02*
D03*
X92953D02*
D03*
D42*
X71406Y68256D02*
D03*
X78099Y88043D02*
D03*
X88618Y109878D02*
D03*
X88688Y104846D02*
D03*
X59055Y19685D02*
D03*
X66929D02*
D03*
X74803D02*
D03*
X82677D02*
D03*
X90551D02*
D03*
X98425D02*
D03*
X106299D02*
D03*
X51181D02*
D03*
X61024Y100394D02*
D03*
X44094Y31496D02*
D03*
X113583D02*
D03*
X78745Y123622D02*
D03*
X61024Y63779D02*
D03*
X57480D02*
D03*
X56693Y88583D02*
D03*
X69291Y26772D02*
D03*
X45394Y97638D02*
D03*
X66929Y42913D02*
D03*
X64567Y26772D02*
D03*
X61417D02*
D03*
X92520Y86221D02*
D03*
X103937Y40551D02*
D03*
X104724Y26772D02*
D03*
X102756Y24409D02*
D03*
X96063D02*
D03*
X94095Y26772D02*
D03*
X83071Y64933D02*
D03*
X81533Y77596D02*
D03*
Y72010D02*
D03*
X75947D02*
D03*
Y77596D02*
D03*
X68716Y79259D02*
D03*
X97638Y74803D02*
D03*
X114567Y51181D02*
D03*
Y55118D02*
D03*
Y59055D02*
D03*
Y62992D02*
D03*
X94488Y102756D02*
D03*
X61024Y118504D02*
D03*
X64925Y118469D02*
D03*
X78740Y114527D02*
D03*
X100394Y109843D02*
D03*
X57087D02*
D03*
X43701Y125984D02*
D03*
X62598D02*
D03*
X113779D02*
D03*
X94882D02*
D03*
X97441Y135236D02*
D03*
X92520Y118574D02*
D03*
X96457D02*
D03*
X109252Y135236D02*
D03*
X105905Y55118D02*
D03*
Y51181D02*
D03*
Y59055D02*
D03*
Y62992D02*
D03*
X94488Y42913D02*
D03*
X114567Y68898D02*
D03*
Y90551D02*
D03*
Y84646D02*
D03*
X46063Y44094D02*
D03*
X52362Y62205D02*
D03*
M02*
