G04*
G04 #@! TF.GenerationSoftware,Altium Limited,Altium Designer,24.5.2 (23)*
G04*
G04 Layer_Physical_Order=1*
G04 Layer_Color=255*
%FSLAX25Y25*%
%MOIN*%
G70*
G04*
G04 #@! TF.SameCoordinates,F2F2F76E-C4BA-41CE-B390-5C05024D07D6*
G04*
G04*
G04 #@! TF.FilePolarity,Positive*
G04*
G01*
G75*
%ADD12C,0.00500*%
%ADD13R,0.01181X0.04921*%
%ADD14R,0.07874X0.09843*%
%ADD15R,0.02200X0.03850*%
%ADD16R,0.02000X0.03850*%
%ADD17R,0.02362X0.04488*%
%ADD18R,0.01181X0.04488*%
%ADD19R,0.02200X0.02000*%
G04:AMPARAMS|DCode=20|XSize=7mil|YSize=32mil|CornerRadius=0mil|HoleSize=0mil|Usage=FLASHONLY|Rotation=225.000|XOffset=0mil|YOffset=0mil|HoleType=Round|Shape=Rectangle|*
%AMROTATEDRECTD20*
4,1,4,-0.00884,0.01379,0.01379,-0.00884,0.00884,-0.01379,-0.01379,0.00884,-0.00884,0.01379,0.0*
%
%ADD20ROTATEDRECTD20*%

G04:AMPARAMS|DCode=21|XSize=7mil|YSize=32mil|CornerRadius=0mil|HoleSize=0mil|Usage=FLASHONLY|Rotation=135.000|XOffset=0mil|YOffset=0mil|HoleType=Round|Shape=Rectangle|*
%AMROTATEDRECTD21*
4,1,4,0.01379,0.00884,-0.00884,-0.01379,-0.01379,-0.00884,0.00884,0.01379,0.01379,0.00884,0.0*
%
%ADD21ROTATEDRECTD21*%

%ADD22R,0.03200X0.01000*%
%ADD23R,0.00800X0.06300*%
%ADD24R,0.02165X0.02177*%
%ADD25R,0.02000X0.02200*%
%ADD26R,0.04331X0.05512*%
%ADD27R,0.03150X0.04700*%
%ADD28R,0.02177X0.02165*%
%ADD32P,0.17819X4X360.0*%
%ADD36C,0.02000*%
%ADD37C,0.01000*%
%ADD38C,0.00612*%
%ADD39O,0.03543X0.06693*%
%ADD40O,0.03543X0.07874*%
%ADD41C,0.02362*%
%ADD42C,0.01968*%
G36*
X117717Y16535D02*
X39764D01*
Y26378D01*
X59433D01*
Y26377D01*
X59735Y25648D01*
X60293Y25089D01*
X61023Y24787D01*
X61812D01*
X62541Y25089D01*
X62992Y25540D01*
X63443Y25089D01*
X64172Y24787D01*
X64962D01*
X65691Y25089D01*
X66249Y25648D01*
X66551Y26377D01*
Y26378D01*
X67307D01*
Y26377D01*
X67609Y25648D01*
X68167Y25089D01*
X68897Y24787D01*
X69686D01*
X70415Y25089D01*
X70973Y25648D01*
X71276Y26377D01*
Y26378D01*
X92110D01*
Y26377D01*
X92412Y25648D01*
X92971Y25089D01*
X93700Y24787D01*
X94079D01*
Y24015D01*
X94381Y23286D01*
X94939Y22727D01*
X95668Y22425D01*
X96458D01*
X97187Y22727D01*
X97745Y23286D01*
X98047Y24015D01*
Y24493D01*
X98522Y24968D01*
X98854Y25464D01*
X98970Y26050D01*
Y26378D01*
X99864D01*
Y26034D01*
X99981Y25449D01*
X100312Y24952D01*
X100772Y24493D01*
Y24015D01*
X101074Y23286D01*
X101632Y22727D01*
X102361Y22425D01*
X103151D01*
X103880Y22727D01*
X104438Y23286D01*
X104740Y24015D01*
Y24787D01*
X105119D01*
X105848Y25089D01*
X106407Y25648D01*
X106709Y26377D01*
Y26378D01*
X117717D01*
Y16535D01*
D02*
G37*
D12*
X70472Y95669D02*
X71260Y96457D01*
X54724Y96063D02*
X55118Y95669D01*
X70472D01*
X52362Y94882D02*
Y100394D01*
X55315Y103347D02*
X57487D01*
X52362Y100394D02*
X55315Y103347D01*
X51968Y94488D02*
X52362Y94882D01*
X49094Y94488D02*
X51968D01*
X88583Y87986D02*
Y94488D01*
X83071Y100000D02*
X88583Y94488D01*
X72047Y100000D02*
X83071D01*
X87402Y89032D02*
Y94095D01*
X82677Y98819D02*
X87402Y94095D01*
X71653Y98819D02*
X82677D01*
X86221Y90078D02*
Y93701D01*
X82284Y97638D02*
X86221Y93701D01*
X70866Y97638D02*
X82284D01*
X68498Y99410D02*
X71063D01*
X71653Y98819D01*
X70669Y101378D02*
X72047Y100000D01*
X68498Y101378D02*
X70669D01*
X86545Y85949D02*
X88583Y87986D01*
X85431Y87062D02*
X87402Y89032D01*
X70669Y97441D02*
X70866Y97638D01*
X68498Y97441D02*
X70669D01*
X84318Y88176D02*
X86221Y90078D01*
X81102Y94095D02*
X81102D01*
X72047D02*
X81102D01*
X82051Y92590D02*
Y93146D01*
X80977Y91517D02*
X82051Y92590D01*
X81102Y94095D02*
X82051Y93146D01*
X53937Y93307D02*
X71260D01*
X72047Y94095D01*
X70866Y94488D02*
X71653Y95276D01*
X54331Y94488D02*
X70866D01*
X71653Y95276D02*
X81496D01*
X83858Y92913D01*
X71260Y96457D02*
X81890D01*
X85039Y93307D01*
X52362Y94882D02*
X53937Y93307D01*
X53543Y95276D02*
X54331Y94488D01*
X53543Y95276D02*
Y99606D01*
X55315Y101378D01*
X54724Y98819D02*
X55315Y99410D01*
X54724Y96063D02*
Y98819D01*
X55315Y99410D02*
X57487D01*
X83858Y92170D02*
Y92913D01*
X82091Y90403D02*
X83858Y92170D01*
X83204Y89289D02*
X85039Y91124D01*
Y93307D01*
X55315Y101378D02*
X57487D01*
X62767Y56880D02*
Y59944D01*
X61124Y55237D02*
X62767Y56880D01*
X61024Y55237D02*
X61124D01*
X62767Y59944D02*
X68708Y65885D01*
X61024Y60427D02*
X67595Y66998D01*
X61024Y58937D02*
Y60427D01*
X43307Y68898D02*
X51575D01*
X61024Y51063D02*
Y55237D01*
X54028Y50992D02*
X57087D01*
X55616Y53831D02*
X57087Y55301D01*
X60524Y47863D02*
X61024Y47363D01*
X57087Y50986D02*
Y50992D01*
X60210Y47863D02*
X60524D01*
X57087Y50986D02*
X60210Y47863D01*
X52362Y48819D02*
Y49327D01*
X54028Y50992D01*
X46063Y56890D02*
X49122Y53831D01*
X55616D01*
X57087Y55313D02*
X60210Y58437D01*
X60524D02*
X61024Y58937D01*
X60210Y58437D02*
X60524D01*
X57087Y55307D02*
Y55313D01*
Y55301D02*
Y55307D01*
X47244Y80690D02*
Y88601D01*
X45394Y78740D02*
Y78840D01*
X47244Y80690D01*
X45394Y90451D02*
X47244Y88601D01*
D13*
X107283Y31496D02*
D03*
X105315D02*
D03*
X103347D02*
D03*
X101378D02*
D03*
X99410D02*
D03*
X97441D02*
D03*
X95472D02*
D03*
X93504D02*
D03*
X91535D02*
D03*
X89567D02*
D03*
X87598D02*
D03*
X85630D02*
D03*
X83661D02*
D03*
X81693D02*
D03*
X79724D02*
D03*
X77756D02*
D03*
X75787D02*
D03*
X73819D02*
D03*
X71850D02*
D03*
X69882D02*
D03*
X67913D02*
D03*
X65945D02*
D03*
X63976D02*
D03*
X62008D02*
D03*
X60039D02*
D03*
X58071D02*
D03*
X56102D02*
D03*
X54134D02*
D03*
X52165D02*
D03*
X50197D02*
D03*
D14*
X43543Y21358D02*
D03*
X113937D02*
D03*
D15*
X43504Y119548D02*
D03*
X47244D02*
D03*
X50984D02*
D03*
Y108798D02*
D03*
X47244D02*
D03*
X43504D02*
D03*
X106496Y119548D02*
D03*
X110236D02*
D03*
X113976D02*
D03*
Y108798D02*
D03*
X110236D02*
D03*
X106496D02*
D03*
D16*
X82480Y119448D02*
D03*
X78740D02*
D03*
X75000D02*
D03*
X74990Y108898D02*
D03*
X82490D02*
D03*
D17*
X40551Y130905D02*
D03*
X43701D02*
D03*
X62598D02*
D03*
X65748D02*
D03*
X116929D02*
D03*
X113779D02*
D03*
X94882D02*
D03*
X91732D02*
D03*
D18*
X46260D02*
D03*
X48228D02*
D03*
X50197D02*
D03*
X52165D02*
D03*
X60039D02*
D03*
X58071D02*
D03*
X56102D02*
D03*
X54134D02*
D03*
X105315D02*
D03*
X107283D02*
D03*
X109252D02*
D03*
X111221D02*
D03*
X103347D02*
D03*
X101378D02*
D03*
X99410D02*
D03*
X97441D02*
D03*
D19*
X82677Y49094D02*
D03*
Y45394D02*
D03*
X78740Y49094D02*
D03*
Y45394D02*
D03*
X100394Y100275D02*
D03*
Y96575D02*
D03*
X61024Y116023D02*
D03*
Y112323D02*
D03*
X61024Y55237D02*
D03*
Y58937D02*
D03*
Y51063D02*
D03*
Y47363D02*
D03*
X96457Y116023D02*
D03*
Y112323D02*
D03*
X92520Y116023D02*
D03*
Y112323D02*
D03*
X104331Y100275D02*
D03*
Y96575D02*
D03*
X86614Y45394D02*
D03*
Y49094D02*
D03*
D20*
X76503Y91517D02*
D03*
X75389Y90403D02*
D03*
X74276Y89289D02*
D03*
X73162Y88176D02*
D03*
X72049Y87062D02*
D03*
X70935Y85949D02*
D03*
X69822Y84835D02*
D03*
X68708Y83722D02*
D03*
X67595Y82608D02*
D03*
X66481Y81494D02*
D03*
X65368Y80381D02*
D03*
X64254Y79267D02*
D03*
X63140Y78154D02*
D03*
X62027Y77040D02*
D03*
X80977Y58090D02*
D03*
X82091Y59203D02*
D03*
X83204Y60317D02*
D03*
X84318Y61431D02*
D03*
X85431Y62544D02*
D03*
X86545Y63658D02*
D03*
X87659Y64771D02*
D03*
X88772Y65885D02*
D03*
X89886Y66998D02*
D03*
X90999Y68112D02*
D03*
X92113Y69225D02*
D03*
X93226Y70339D02*
D03*
X94340Y71452D02*
D03*
X95454Y72566D02*
D03*
D21*
X62027D02*
D03*
X63140Y71452D02*
D03*
X64254Y70339D02*
D03*
X65368Y69225D02*
D03*
X66481Y68112D02*
D03*
X67595Y66998D02*
D03*
X68708Y65885D02*
D03*
X69822Y64771D02*
D03*
X70935Y63658D02*
D03*
X72049Y62544D02*
D03*
X73162Y61431D02*
D03*
X74276Y60317D02*
D03*
X75389Y59203D02*
D03*
X76503Y58090D02*
D03*
X95454Y77040D02*
D03*
X94340Y78154D02*
D03*
X93226Y79267D02*
D03*
X92113Y80381D02*
D03*
X90999Y81494D02*
D03*
X89886Y82608D02*
D03*
X88772Y83722D02*
D03*
X87659Y84835D02*
D03*
X86545Y85949D02*
D03*
X85431Y87062D02*
D03*
X84318Y88176D02*
D03*
X83204Y89289D02*
D03*
X82091Y90403D02*
D03*
X80977Y91517D02*
D03*
D22*
X57487Y103347D02*
D03*
Y101378D02*
D03*
Y99410D02*
D03*
Y97441D02*
D03*
X68498D02*
D03*
Y99410D02*
D03*
Y101378D02*
D03*
Y103347D02*
D03*
D23*
X62992Y100394D02*
D03*
D24*
X92520Y96646D02*
D03*
Y100205D02*
D03*
X57087Y58866D02*
D03*
Y55307D02*
D03*
Y50992D02*
D03*
Y47433D02*
D03*
X100394Y115953D02*
D03*
Y112394D02*
D03*
X64961Y115953D02*
D03*
Y112394D02*
D03*
X57087D02*
D03*
Y115953D02*
D03*
X68898Y45465D02*
D03*
Y49024D02*
D03*
X96457Y100205D02*
D03*
Y96646D02*
D03*
X64961Y45465D02*
D03*
Y49024D02*
D03*
X94488Y45465D02*
D03*
Y49024D02*
D03*
X88583Y115953D02*
D03*
Y112394D02*
D03*
X68898D02*
D03*
Y115953D02*
D03*
D25*
X45394Y94488D02*
D03*
X49094D02*
D03*
X45394Y66929D02*
D03*
X49094D02*
D03*
X45394Y70866D02*
D03*
X49094D02*
D03*
X45394Y74803D02*
D03*
X49094D02*
D03*
X45394Y82677D02*
D03*
X49094D02*
D03*
X45394Y78740D02*
D03*
X49094D02*
D03*
X45394Y86614D02*
D03*
X49094D02*
D03*
X45394Y90551D02*
D03*
X49094D02*
D03*
D26*
X52362Y57480D02*
D03*
Y48819D02*
D03*
X46063D02*
D03*
Y57480D02*
D03*
D27*
X104743Y74803D02*
D03*
X111793D02*
D03*
D28*
X112016Y80709D02*
D03*
X108457D02*
D03*
Y68898D02*
D03*
X112016D02*
D03*
Y92520D02*
D03*
X108457D02*
D03*
X112016Y88583D02*
D03*
X108457D02*
D03*
X112016Y84646D02*
D03*
X108457D02*
D03*
X59244Y90551D02*
D03*
X62803D02*
D03*
X59244Y86614D02*
D03*
X62803D02*
D03*
X112016Y62992D02*
D03*
X108457D02*
D03*
X112016Y59055D02*
D03*
X108457D02*
D03*
X112016Y55118D02*
D03*
X108457D02*
D03*
X112016Y51181D02*
D03*
X108457D02*
D03*
D32*
X78740Y74803D02*
D03*
D36*
X44094Y31496D02*
X49606D01*
X88653Y104846D02*
Y109913D01*
X88618Y109878D02*
Y112394D01*
X82490Y109823D02*
X85061Y112394D01*
X82480Y122441D02*
X99222D01*
X82480D02*
X82480D01*
Y122450D01*
Y119448D02*
Y122441D01*
X78745Y123622D02*
X81309D01*
X76181D02*
X78745D01*
X75000Y119448D02*
Y122441D01*
Y118523D02*
Y119448D01*
X107874Y31496D02*
X113583D01*
X56693Y88583D02*
X59244D01*
X66929Y42913D02*
Y45465D01*
X84646Y67716D02*
X90158Y73228D01*
Y76378D01*
X84646Y81890D02*
X90158Y76378D01*
X112016Y51181D02*
X114567D01*
X112016Y55118D02*
X114567D01*
X112016Y59055D02*
X114567D01*
X112016Y62992D02*
X114567D01*
X94488Y100205D02*
X96457D01*
X92520D02*
X94488D01*
Y102756D01*
X84850Y115953D02*
X88583D01*
X83425Y114527D02*
X84850Y115953D01*
X78740Y114527D02*
X83425D01*
X82490Y108898D02*
Y109823D01*
X85061Y112394D02*
X88583D01*
X64925Y115918D02*
Y118469D01*
X68900Y112392D02*
X74990D01*
X68898Y112394D02*
X68900Y112392D01*
X74990Y108898D02*
Y112392D01*
X77125Y114527D01*
X78740D01*
Y119448D01*
X100394Y109843D02*
Y112394D01*
X109260D02*
X110236Y111417D01*
X100394Y112394D02*
X109260D01*
X110236Y108798D02*
Y111417D01*
X47244Y108798D02*
Y111417D01*
X48221Y112394D02*
X57087D01*
X47244Y111417D02*
X48221Y112394D01*
X57087Y109843D02*
Y112394D01*
X100394Y115953D02*
Y121269D01*
X99222Y122441D02*
X100394Y121269D01*
X58258Y122441D02*
X75000D01*
X81309Y123622D02*
X82480Y122450D01*
X57087Y121269D02*
X58258Y122441D01*
X57087Y115953D02*
Y121269D01*
X75000Y122441D02*
X76181Y123622D01*
X110236Y116929D02*
X111213Y115953D01*
X115377D01*
X116535Y117111D01*
Y123228D01*
X113779Y125984D02*
X116535Y123228D01*
X47244Y116929D02*
X48221Y115953D01*
X40945Y123228D02*
X43701Y125984D01*
X40945Y117111D02*
Y123228D01*
Y117111D02*
X42103Y115953D01*
X46268D01*
X47244Y116929D01*
X87303Y132080D02*
Y133189D01*
Y132080D02*
X88478Y130905D01*
X91732D01*
X121358Y132080D02*
Y133189D01*
X120183Y130905D02*
X121358Y132080D01*
X116929Y130905D02*
X120183D01*
X70177Y132080D02*
Y133189D01*
X69002Y130905D02*
X70177Y132080D01*
X65748Y130905D02*
X69002D01*
X37297D02*
X40551D01*
X36122Y132080D02*
X37297Y130905D01*
X36122Y132080D02*
Y133189D01*
X43701Y125984D02*
Y130905D01*
X62598Y125984D02*
Y130905D01*
X113779Y125984D02*
Y130905D01*
X94882Y125984D02*
Y130905D01*
X110236Y116929D02*
Y119548D01*
X109260Y115953D02*
X110236Y116929D01*
X100394Y115953D02*
X109260D01*
X48221D02*
X57087D01*
X47244Y116929D02*
Y119548D01*
X68898Y115953D02*
X72430D01*
X75000Y118523D01*
X94488Y42913D02*
Y45465D01*
X112016Y90551D02*
X114567D01*
X112016Y84646D02*
X114567D01*
X112016Y68898D02*
X114567D01*
X112016Y90551D02*
Y92520D01*
Y88583D02*
Y90551D01*
X66929Y45465D02*
X68898D01*
X64961D02*
X66929D01*
X59244Y88583D02*
Y90551D01*
Y86614D02*
Y88583D01*
X46063Y44094D02*
X55905D01*
X57087Y45276D01*
Y47433D01*
X52362Y57480D02*
X53748Y58866D01*
X52362Y57480D02*
Y62205D01*
X46063Y44094D02*
Y48819D01*
X53748Y58866D02*
X57087D01*
X112016Y80709D02*
Y84646D01*
D37*
X42916Y37795D02*
X52756D01*
X54134Y36417D01*
Y31496D02*
Y36417D01*
X42913Y93132D02*
X45394Y90651D01*
X42913Y99902D02*
X50984Y107973D01*
X42913Y93132D02*
Y99902D01*
X40945Y100394D02*
X43504Y102953D01*
X40945Y91163D02*
X45394Y86714D01*
X40945Y91163D02*
Y100394D01*
X71406Y66355D02*
Y68256D01*
X69822Y64771D02*
X71406Y66355D01*
X64961Y59910D02*
X69822Y64771D01*
X77913Y88228D02*
Y90106D01*
X76503Y91517D02*
X77913Y90106D01*
X75344Y92676D02*
X76503Y91517D01*
X77913Y88228D02*
X78099Y88043D01*
X88653Y104846D02*
X88688D01*
X88426D02*
X88653D01*
X86927Y103347D02*
X88426Y104846D01*
X68498Y103347D02*
X86927D01*
X99410Y23425D02*
Y31496D01*
X85630Y23425D02*
Y31496D01*
X71850Y23425D02*
Y31496D01*
X58071Y23425D02*
Y31496D01*
X61024Y100394D02*
X62992D01*
X61024Y98425D02*
Y100394D01*
X60039Y97441D02*
X61024Y98425D01*
X57487Y97441D02*
X60039D01*
X61024Y63779D02*
X61024D01*
X63508Y66264D01*
X57695Y63779D02*
X64254Y70339D01*
X58617Y66929D02*
X63140Y71452D01*
X49094Y66929D02*
X58617D01*
X57480Y63779D02*
X57695D01*
X69291Y26772D02*
Y27034D01*
X69882Y27624D02*
Y31496D01*
X69291Y27034D02*
X69882Y27624D01*
X45394Y94489D02*
Y97638D01*
X63976Y27624D02*
X64567Y27034D01*
Y26772D02*
Y27034D01*
X63976Y27624D02*
Y31496D01*
X61417Y27034D02*
X62008Y27624D01*
Y31496D01*
X61417Y26772D02*
Y27034D01*
X65945Y37992D02*
X71260Y43307D01*
X65945Y31496D02*
Y37992D01*
X71260Y43307D02*
Y52362D01*
X58268Y40945D02*
X60039Y39173D01*
Y31496D02*
Y39173D01*
X92520Y86221D02*
X96457Y90158D01*
Y96646D01*
X92334Y86035D02*
X92520Y86221D01*
X91086Y86035D02*
X92334D01*
X89886Y82608D02*
X92334Y85057D01*
Y86035D01*
X88772Y83722D02*
X91086Y86035D01*
X93226Y79267D02*
X106454Y92495D01*
X103937Y40289D02*
X105315Y38911D01*
X103937Y40289D02*
Y40551D01*
X105315Y31496D02*
Y38911D01*
X43504Y102953D02*
Y108798D01*
X103347Y28150D02*
X104724Y26772D01*
X102756Y24409D02*
Y24671D01*
X101394Y26034D02*
Y31480D01*
Y26034D02*
X102756Y24671D01*
X101378Y31496D02*
X101394Y31480D01*
X96063Y24409D02*
Y24671D01*
X97441Y26050D01*
Y31496D01*
X94095Y26772D02*
X95472Y28150D01*
Y31496D01*
X103347Y28150D02*
Y31496D01*
X70935Y63658D02*
X74207Y66929D01*
X75984D02*
X78326Y64587D01*
X74207Y66929D02*
X75984D01*
X79154Y64587D02*
X82284Y67716D01*
X78326Y64587D02*
X79154D01*
X83071Y64905D02*
X85431Y62544D01*
X73172Y74803D02*
X78740D01*
X66481Y68112D02*
X73172Y74803D01*
X84646Y67716D02*
X84646Y67716D01*
X82284Y67716D02*
X84646D01*
X90337Y76378D02*
X93226Y79267D01*
X90158Y76378D02*
X90337D01*
X87659Y84835D02*
X92520Y89696D01*
X84713Y81890D02*
X87659Y84835D01*
X84646Y81890D02*
X84713D01*
X94340Y78154D02*
X104769Y88583D01*
X92913Y76727D02*
X94340Y78154D01*
X85431Y62544D02*
X94488Y53487D01*
X66481Y81494D02*
X68716Y79259D01*
X64395Y83580D02*
X66481Y81494D01*
X97638Y74803D02*
X104743D01*
X92913Y75106D02*
Y76727D01*
Y75106D02*
X95454Y72566D01*
Y72619D01*
X97638Y74803D01*
X70935Y63658D02*
Y63658D01*
X64961Y105783D02*
Y112394D01*
Y105783D02*
X67398Y103347D01*
X68498D01*
X61059Y112358D02*
X64925D01*
X64961Y112394D01*
X61024Y112323D02*
X61059Y112358D01*
X61024Y116023D02*
Y118504D01*
X96457Y112323D02*
X96492Y112358D01*
X100358D01*
X100394Y112394D01*
X92520Y112323D02*
X96457D01*
X50984Y120373D02*
X55512Y124901D01*
X50984Y119548D02*
Y120373D01*
X55512Y124901D02*
Y126772D01*
X43504Y120373D02*
X50197Y127066D01*
Y130905D01*
X43504Y119548D02*
Y120373D01*
X113376Y120148D02*
X113976Y119548D01*
X113376Y120148D02*
Y121269D01*
X107283Y127362D02*
X113376Y121269D01*
X101378Y125491D02*
Y130905D01*
Y125491D02*
X106496Y120373D01*
Y119548D02*
Y120373D01*
X97441Y130905D02*
Y135236D01*
X92520Y116023D02*
Y118574D01*
X96457Y116023D02*
Y118574D01*
X109252Y130905D02*
Y135236D01*
X69882Y31496D02*
Y37205D01*
X74410Y41732D01*
Y53937D01*
X73819Y31496D02*
Y37205D01*
X75787Y36811D02*
X78740Y39764D01*
X73819Y37205D02*
X75984Y39370D01*
X75787Y31496D02*
Y36811D01*
X74135Y92676D02*
X75344D01*
X72011Y90551D02*
X74135Y92676D01*
X92520Y89696D02*
Y96646D01*
X45394Y86614D02*
Y86714D01*
Y90551D02*
Y90651D01*
Y90451D02*
Y90551D01*
X50984Y107973D02*
Y108798D01*
X62803Y90551D02*
X72011D01*
X102800Y62992D02*
X105905D01*
X94340Y71452D02*
X102800Y62992D01*
X105720Y59240D02*
X105905Y59055D01*
X93226Y70339D02*
X104325Y59240D01*
X105720D01*
X92113Y69225D02*
X105720Y55618D01*
Y55303D02*
X105905Y55118D01*
X105720Y55303D02*
Y55618D01*
X90999Y68112D02*
X103150Y55962D01*
Y53937D02*
Y55962D01*
X88772Y65885D02*
X100000Y54657D01*
X89886Y66998D02*
X101575Y55309D01*
X100000Y40157D02*
Y54657D01*
X101575Y39370D02*
Y55309D01*
X98425Y40945D02*
Y54005D01*
X87659Y64771D02*
X98425Y54005D01*
X86545Y63658D02*
X96850Y53352D01*
Y41732D02*
Y53352D01*
X103150Y53937D02*
X105905Y51181D01*
Y55118D02*
X108457D01*
X94488Y49024D02*
Y53487D01*
X105905Y51181D02*
X108457D01*
X105905Y59055D02*
X108457D01*
X105905Y62992D02*
X108457D01*
X93522Y31514D02*
Y34847D01*
X94108Y35433D02*
X97638D01*
X101575Y39370D01*
X93522Y34847D02*
X94108Y35433D01*
X89567Y36417D02*
X91732Y38583D01*
X91535Y35630D02*
X92913Y37008D01*
X96850D02*
X100000Y40157D01*
X92913Y37008D02*
X96850D01*
X96063Y38583D02*
X98425Y40945D01*
X91732Y38583D02*
X96063D01*
X93504Y31496D02*
X93522Y31514D01*
X91535Y31496D02*
Y35630D01*
X89567Y31496D02*
Y36417D01*
X95276Y40157D02*
X96850Y41732D01*
X90945Y40157D02*
X95276D01*
X87598Y31496D02*
Y36811D01*
X90945Y40157D01*
X83661Y35236D02*
X90551Y42126D01*
X83661Y31496D02*
Y35236D01*
X90551Y42126D02*
Y55197D01*
X79724Y36024D02*
X86614Y42913D01*
X88976D02*
Y54545D01*
X81693Y35630D02*
X88976Y42913D01*
X86614D02*
Y45394D01*
X68898Y49024D02*
Y52362D01*
X66535Y54724D02*
X68898Y52362D01*
X66535Y54724D02*
Y59258D01*
X77756Y36417D02*
X82677Y41339D01*
Y45394D01*
X84318Y61431D02*
X90551Y55197D01*
X83204Y60317D02*
X88976Y54545D01*
X82091Y59203D02*
X86614Y54680D01*
Y49094D02*
Y54680D01*
X81693Y31496D02*
Y35630D01*
X79724Y31496D02*
Y36024D01*
X77756Y31496D02*
Y36417D01*
X78740Y39764D02*
Y45394D01*
X75984Y39370D02*
Y54724D01*
X80977Y58090D02*
X82677Y56390D01*
Y49094D02*
Y56390D01*
X78740Y49094D02*
Y55853D01*
X76503Y58090D02*
Y58090D01*
Y58090D02*
X78740Y55853D01*
X73862Y56847D02*
X75984Y54724D01*
X73862Y57675D02*
X75389Y59203D01*
X73862Y56847D02*
Y57675D01*
X67913Y37598D02*
X72835Y42520D01*
Y53150D01*
X71567Y56779D02*
Y57608D01*
Y56779D02*
X74410Y53937D01*
X71567Y57608D02*
X74276Y60317D01*
X69685Y56299D02*
X72835Y53150D01*
X68110Y55512D02*
X71260Y52362D01*
X67913Y31496D02*
Y37598D01*
X69685Y56299D02*
Y57953D01*
X73162Y61431D01*
X68110Y58605D02*
X72049Y62544D01*
X68110Y55512D02*
Y58605D01*
X66535Y59258D02*
X70935Y63658D01*
X64961Y49024D02*
Y59910D01*
X63508Y66264D02*
Y67366D01*
X65368Y69225D01*
X58359Y68898D02*
X62027Y72566D01*
X51575Y68898D02*
X58359D01*
X36614Y42126D02*
Y68898D01*
X42520Y74803D02*
X45394D01*
X36614Y68898D02*
X42520Y74803D01*
X36614Y42126D02*
X42520Y36220D01*
X50787D01*
X38189Y42522D02*
X42916Y37795D01*
X41339Y43314D02*
Y64961D01*
Y43314D02*
X43708Y40945D01*
X38189Y42522D02*
Y67716D01*
X43312Y39370D02*
X54724D01*
X39764Y42918D02*
Y66535D01*
X43708Y40945D02*
X58268D01*
X39764Y42918D02*
X43312Y39370D01*
X52075Y31587D02*
Y34933D01*
X50787Y36220D02*
X52075Y34933D01*
Y31587D02*
X52165Y31496D01*
X56102D02*
Y37992D01*
X54724Y39370D02*
X56102Y37992D01*
X42126Y68898D02*
X43307D01*
X39764Y66535D02*
X42126Y68898D01*
X41339Y64961D02*
X43307Y66929D01*
X45394D01*
X41339Y70866D02*
X45394D01*
X38189Y67716D02*
X41339Y70866D01*
X46063Y56890D02*
Y57480D01*
X55905Y70866D02*
X62053Y77014D01*
X49094Y70866D02*
X55905D01*
X49094Y74803D02*
X50787D01*
X55512Y79528D01*
X61767D01*
X63140Y78154D01*
X62419Y81102D02*
X64254Y79267D01*
X52362Y81102D02*
X62419D01*
X50787Y82677D02*
X52362Y81102D01*
X45394Y82677D02*
Y86614D01*
X49094Y82677D02*
X50787D01*
X63071D02*
X65368Y80381D01*
X53031Y82677D02*
X63071D01*
X49694Y86014D02*
X53031Y82677D01*
X64395Y83580D02*
Y85028D01*
X62809Y86614D02*
X64395Y85028D01*
X49594Y86014D02*
X49694D01*
X49094Y86514D02*
Y86614D01*
Y86514D02*
X49594Y86014D01*
X49094Y78740D02*
Y82677D01*
Y86614D02*
Y90551D01*
X62803Y86614D02*
X62809D01*
X99122Y68898D02*
X108457D01*
X95454Y72566D02*
X99122Y68898D01*
X108457Y80709D02*
Y84646D01*
Y78914D02*
Y80709D01*
Y78914D02*
X111793Y75578D01*
Y74803D02*
Y75578D01*
X95454Y77040D02*
X103059Y84646D01*
X108457D01*
X104769Y88583D02*
X108457D01*
X108432Y92495D02*
X108457Y92520D01*
X106454Y92495D02*
X108432D01*
X50197Y130905D02*
Y134449D01*
X52165Y127362D02*
X52756Y126772D01*
X56102Y127362D02*
Y130905D01*
X52165Y127362D02*
Y130905D01*
X52756Y126772D02*
X55512D01*
X56102Y127362D01*
X101378Y134449D02*
X101969Y135039D01*
X101378Y130905D02*
Y134449D01*
X101969Y135039D02*
X104724D01*
X105315Y130905D02*
Y134449D01*
X104724Y135039D02*
X105315Y134449D01*
X103347Y127362D02*
X103937Y126772D01*
X103347Y127362D02*
Y130905D01*
X103937Y126772D02*
X106693D01*
X107283Y127362D02*
Y130905D01*
X106693Y126772D02*
X107283Y127362D01*
X53543Y135039D02*
X54134Y134449D01*
Y130905D02*
Y134449D01*
X50787Y135039D02*
X53543D01*
X50197Y134449D02*
X50787Y135039D01*
D38*
X103068Y91451D02*
Y95523D01*
X92061Y82441D02*
X101656Y92036D01*
X93059Y81442D02*
X103068Y91451D01*
X101656Y92036D02*
Y95523D01*
X103068D02*
X103427Y95881D01*
X103637D01*
X93059Y81389D02*
Y81442D01*
X92113Y80443D02*
X93059Y81389D01*
X92113Y80381D02*
Y80443D01*
X100394Y96575D02*
X101088Y95881D01*
X91062Y81494D02*
X92008Y82441D01*
X90999Y81494D02*
X91062D01*
X92008Y82441D02*
X92061D01*
X101298Y95881D02*
X101656Y95523D01*
X101088Y95881D02*
X101298D01*
X103637D02*
X104331Y96575D01*
X110942Y104723D02*
Y105815D01*
X109349Y103130D02*
X110942Y104723D01*
X103068Y101328D02*
Y102193D01*
Y101328D02*
X103427Y100969D01*
X103068Y102193D02*
X104005Y103130D01*
X109349D01*
X103637Y100969D02*
X104331Y100275D01*
X109530Y105308D02*
Y105815D01*
X112177Y106174D02*
X113976Y107973D01*
Y108798D01*
X101656Y102778D02*
X103420Y104542D01*
X108765D01*
X109530Y105308D01*
X108296Y106174D02*
X109172D01*
X106496Y107973D02*
Y108798D01*
X110942Y105815D02*
X111301Y106174D01*
X112177D01*
X109172D02*
X109530Y105815D01*
X106496Y107973D02*
X108296Y106174D01*
X101298Y100969D02*
X101656Y101328D01*
X103427Y100969D02*
X103637D01*
X101088D02*
X101298D01*
X100394Y100275D02*
X101088Y100969D01*
X101656Y101328D02*
Y102778D01*
D39*
X36122Y149606D02*
D03*
X70177D02*
D03*
X121358D02*
D03*
X87303D02*
D03*
D40*
X36122Y133189D02*
D03*
X70177D02*
D03*
X121358D02*
D03*
X87303D02*
D03*
D41*
X41772Y135118D02*
D03*
X64528D02*
D03*
X115709D02*
D03*
X92953D02*
D03*
D42*
X71406Y68256D02*
D03*
X78099Y88043D02*
D03*
X88618Y109878D02*
D03*
X88688Y104846D02*
D03*
X59055Y19685D02*
D03*
X66929D02*
D03*
X74803D02*
D03*
X82677D02*
D03*
X90551D02*
D03*
X98425D02*
D03*
X106299D02*
D03*
X51181D02*
D03*
X61024Y100394D02*
D03*
X44094Y31496D02*
D03*
X113583D02*
D03*
X78745Y123622D02*
D03*
X61024Y63779D02*
D03*
X57480D02*
D03*
X56693Y88583D02*
D03*
X69291Y26772D02*
D03*
X45394Y97638D02*
D03*
X66929Y42913D02*
D03*
X64567Y26772D02*
D03*
X61417D02*
D03*
X92520Y86221D02*
D03*
X103937Y40551D02*
D03*
X104724Y26772D02*
D03*
X102756Y24409D02*
D03*
X96063D02*
D03*
X94095Y26772D02*
D03*
X83071Y64933D02*
D03*
X81533Y77596D02*
D03*
Y72010D02*
D03*
X75947D02*
D03*
Y77596D02*
D03*
X68716Y79259D02*
D03*
X97638Y74803D02*
D03*
X114567Y51181D02*
D03*
Y55118D02*
D03*
Y59055D02*
D03*
Y62992D02*
D03*
X94488Y102756D02*
D03*
X61024Y118504D02*
D03*
X64925Y118469D02*
D03*
X78740Y114527D02*
D03*
X100394Y109843D02*
D03*
X57087D02*
D03*
X43701Y125984D02*
D03*
X62598D02*
D03*
X113779D02*
D03*
X94882D02*
D03*
X97441Y135236D02*
D03*
X92520Y118574D02*
D03*
X96457D02*
D03*
X109252Y135236D02*
D03*
X105905Y55118D02*
D03*
Y51181D02*
D03*
Y59055D02*
D03*
Y62992D02*
D03*
X94488Y42913D02*
D03*
X114567Y68898D02*
D03*
Y90551D02*
D03*
Y84646D02*
D03*
X46063Y44094D02*
D03*
X52362Y62205D02*
D03*
M02*
